Russolo-24ptMedium.ufo
<glyph name="exclam" format="2">
  <advance width="512"/>
  <unicode hex="0021"/>
  <note>
exclam
</note>
  <outline>
    <contour>
      <point x="238" y="324" type="curve"/>
      <point x="274" y="324" type="line"/>
      <point x="274" y="786"/>
      <point x="347" y="1088"/>
      <point x="347" y="1230" type="curve" smooth="yes"/>
      <point x="347" y="1288"/>
      <point x="272" y="1344"/>
      <point x="272" y="1462" type="curve"/>
      <point x="240" y="1462" type="line"/>
      <point x="240" y="1344"/>
      <point x="165" y="1288"/>
      <point x="165" y="1230" type="curve" smooth="yes"/>
      <point x="165" y="1088"/>
      <point x="238" y="786"/>
    </contour>
    <contour>
      <point x="255" y="-26" type="curve" smooth="yes"/>
      <point x="317" y="-26"/>
      <point x="365" y="20"/>
      <point x="365" y="84" type="curve" smooth="yes"/>
      <point x="365" y="150"/>
      <point x="315" y="192"/>
      <point x="255" y="192" type="curve" smooth="yes"/>
      <point x="195" y="192"/>
      <point x="145" y="150"/>
      <point x="145" y="84" type="curve" smooth="yes"/>
      <point x="145" y="20"/>
      <point x="193" y="-26"/>
    </contour>
  </outline>
</glyph>
<glyph name="quotesingle" format="2">
  <advance width="355"/>
  <unicode hex="0027"/>
  <note>
quotesingle
</note>
  <outline>
    <contour>
      <point x="158" y="854" type="line"/>
      <point x="196" y="854" type="line"/>
      <point x="214" y="1354" type="line"/>
      <point x="142" y="1354" type="line"/>
    </contour>
  </outline>
</glyph>
<glyph name="hyphen" format="2">
  <advance width="628"/>
  <unicode hex="002D"/>
  <note>
hyphen
</note>
  <outline>
    <contour>
      <point x="74" y="462" type="line"/>
      <point x="530" y="462" type="line"/>
      <point x="554" y="532" type="line"/>
      <point x="98" y="532" type="line"/>
    </contour>
  </outline>
</glyph>
<glyph name="one" format="2">
  <advance width="590"/>
  <unicode hex="0031"/>
  <note>
one
</note>
  <outline>
    <contour>
      <point x="218" y="0" type="line"/>
      <point x="424" y="0" type="line"/>
      <point x="424" y="1430" type="line"/>
      <point x="355" y="1430" type="line"/>
      <point x="26" y="912" type="line"/>
      <point x="56" y="894" type="line"/>
      <point x="268" y="1228" type="line"/>
      <point x="218" y="1183" type="line"/>
    </contour>
  </outline>
</glyph>
<glyph name="three" format="2">
  <advance width="1064"/>
  <unicode hex="0033"/>
  <note>
three
</note>
  <outline>
    <contour>
      <point x="496" y="-38" type="curve" smooth="yes"/>
      <point x="766" y="-38"/>
      <point x="976" y="121"/>
      <point x="976" y="398" type="curve" smooth="yes"/>
      <point x="976" y="609"/>
      <point x="849" y="802"/>
      <point x="642" y="789" type="curve"/>
      <point x="629" y="772" type="line"/>
      <point x="841" y="795"/>
      <point x="938" y="921"/>
      <point x="938" y="1100" type="curve" smooth="yes"/>
      <point x="938" y="1328"/>
      <point x="780" y="1460"/>
      <point x="530" y="1460" type="curve" smooth="yes"/>
      <point x="276" y="1460"/>
      <point x="100" y="1324"/>
      <point x="88" y="1078" type="curve"/>
      <point x="266" y="1078" type="line"/>
      <point x="274" y="1232"/>
      <point x="374" y="1424"/>
      <point x="526" y="1424" type="curve" smooth="yes"/>
      <point x="676" y="1424"/>
      <point x="750" y="1236"/>
      <point x="750" y="1072" type="curve" smooth="yes"/>
      <point x="750" y="910"/>
      <point x="678" y="800"/>
      <point x="482" y="800" type="curve" smooth="yes"/>
      <point x="316" y="800" type="line"/>
      <point x="316" y="764" type="line"/>
      <point x="486" y="764" type="line" smooth="yes"/>
      <point x="692" y="764"/>
      <point x="768" y="578"/>
      <point x="768" y="404" type="curve" smooth="yes"/>
      <point x="768" y="206"/>
      <point x="674" y="-2"/>
      <point x="502" y="-2" type="curve" smooth="yes"/>
      <point x="332" y="-2"/>
      <point x="246" y="200"/>
      <point x="246" y="346" type="curve" smooth="yes"/>
      <point x="246" y="362" type="line"/>
      <point x="62" y="362" type="line"/>
      <point x="62" y="336" type="line" smooth="yes"/>
      <point x="62" y="108"/>
      <point x="238" y="-38"/>
    </contour>
  </outline>
</glyph>
<glyph name="six" format="2">
  <advance width="1056"/>
  <unicode hex="0036"/>
  <note>
six
</note>
  <outline>
    <contour>
      <point x="523" y="-38" type="curve" smooth="yes"/>
      <point x="852" y="-38"/>
      <point x="999" y="199"/>
      <point x="999" y="432" type="curve" smooth="yes"/>
      <point x="999" y="683"/>
      <point x="825" y="882"/>
      <point x="549" y="882" type="curve" smooth="yes"/>
      <point x="385" y="882"/>
      <point x="289" y="809"/>
      <point x="234" y="702" type="curve"/>
      <point x="249" y="677" type="line"/>
      <point x="290" y="892"/>
      <point x="349" y="1005"/>
      <point x="421" y="1102" type="curve" smooth="yes"/>
      <point x="512" y="1224"/>
      <point x="625" y="1316"/>
      <point x="773" y="1380" type="curve"/>
      <point x="773" y="1446" type="line"/>
      <point x="517" y="1394"/>
      <point x="333" y="1266"/>
      <point x="209" y="1039" type="curve" smooth="yes"/>
      <point x="140" y="914"/>
      <point x="79" y="749"/>
      <point x="79" y="540" type="curve" smooth="yes"/>
      <point x="79" y="163"/>
      <point x="258" y="-38"/>
    </contour>
    <contour>
      <point x="539" y="-2" type="curve" smooth="yes"/>
      <point x="368" y="-2"/>
      <point x="285" y="213"/>
      <point x="285" y="416" type="curve" smooth="yes"/>
      <point x="285" y="621"/>
      <point x="368" y="846"/>
      <point x="549" y="846" type="curve" smooth="yes"/>
      <point x="720" y="846"/>
      <point x="793" y="595"/>
      <point x="793" y="416" type="curve" smooth="yes"/>
      <point x="793" y="231"/>
      <point x="716" y="-2"/>
    </contour>
  </outline>
</glyph>
<glyph name="eight" format="2">
  <advance width="1047"/>
  <unicode hex="0038"/>
  <note>
eight
</note>
  <outline>
    <contour>
      <point x="515" y="-35" type="curve" smooth="yes"/>
      <point x="791" y="-35"/>
      <point x="976" y="128"/>
      <point x="976" y="374" type="curve" smooth="yes"/>
      <point x="976" y="588"/>
      <point x="862" y="737"/>
      <point x="582" y="840" type="curve" smooth="yes"/>
      <point x="391" y="910"/>
      <point x="321" y="989"/>
      <point x="321" y="1108" type="curve" smooth="yes"/>
      <point x="321" y="1293"/>
      <point x="412" y="1413"/>
      <point x="550" y="1413" type="curve" smooth="yes"/>
      <point x="703" y="1413"/>
      <point x="837" y="1292"/>
      <point x="837" y="1132" type="curve" smooth="yes"/>
      <point x="837" y="994"/>
      <point x="754" y="874"/>
      <point x="619" y="809" type="curve"/>
      <point x="657" y="797" type="line"/>
      <point x="808" y="870"/>
      <point x="893" y="996"/>
      <point x="893" y="1135" type="curve" smooth="yes"/>
      <point x="893" y="1318"/>
      <point x="742" y="1450"/>
      <point x="537" y="1450" type="curve" smooth="yes"/>
      <point x="312" y="1450"/>
      <point x="145" y="1318"/>
      <point x="145" y="1107" type="curve" smooth="yes"/>
      <point x="145" y="927"/>
      <point x="254" y="796"/>
      <point x="448" y="721" type="curve" smooth="yes"/>
      <point x="722" y="615"/>
      <point x="790" y="528"/>
      <point x="790" y="356" type="curve" smooth="yes"/>
      <point x="790" y="147"/>
      <point x="687" y="9"/>
      <point x="506" y="7" type="curve" smooth="yes"/>
      <point x="290" y="5"/>
      <point x="162" y="162"/>
      <point x="162" y="353" type="curve" smooth="yes"/>
      <point x="162" y="528"/>
      <point x="267" y="674"/>
      <point x="419" y="753" type="curve"/>
      <point x="384" y="770" type="line"/>
      <point x="185" y="686"/>
      <point x="72" y="534"/>
      <point x="72" y="351" type="curve" smooth="yes"/>
      <point x="72" y="133"/>
      <point x="235" y="-35"/>
    </contour>
  </outline>
</glyph>
<glyph name="question" format="2">
  <advance width="974"/>
  <unicode hex="003F"/>
  <note>
question
</note>
  <outline>
    <contour>
      <point x="412" y="404" type="curve"/>
      <point x="487" y="404" type="line"/>
      <point x="462" y="475"/>
      <point x="430" y="557"/>
      <point x="430" y="636" type="curve" smooth="yes"/>
      <point x="430" y="928"/>
      <point x="872" y="888"/>
      <point x="872" y="1180" type="curve" smooth="yes"/>
      <point x="872" y="1429"/>
      <point x="599" y="1464"/>
      <point x="458" y="1464" type="curve" smooth="yes"/>
      <point x="259" y="1464"/>
      <point x="95" y="1395"/>
      <point x="95" y="1192" type="curve" smooth="yes"/>
      <point x="95" y="1183"/>
      <point x="95" y="1173"/>
      <point x="95" y="1159" type="curve"/>
      <point x="225" y="1159" type="line"/>
      <point x="222" y="1175"/>
      <point x="221" y="1201"/>
      <point x="221" y="1215" type="curve" smooth="yes"/>
      <point x="221" y="1348"/>
      <point x="302" y="1430"/>
      <point x="456" y="1430" type="curve" smooth="yes"/>
      <point x="609" y="1430"/>
      <point x="689" y="1314"/>
      <point x="689" y="1173" type="curve" smooth="yes"/>
      <point x="689" y="893"/>
      <point x="376" y="924"/>
      <point x="376" y="624" type="curve" smooth="yes"/>
      <point x="376" y="544"/>
      <point x="398" y="454"/>
    </contour>
    <contour>
      <point x="452" y="-26" type="curve" smooth="yes"/>
      <point x="514" y="-26"/>
      <point x="562" y="20"/>
      <point x="562" y="84" type="curve" smooth="yes"/>
      <point x="562" y="150"/>
      <point x="512" y="192"/>
      <point x="452" y="192" type="curve" smooth="yes"/>
      <point x="392" y="192"/>
      <point x="342" y="150"/>
      <point x="342" y="84" type="curve" smooth="yes"/>
      <point x="342" y="20"/>
      <point x="390" y="-26"/>
    </contour>
  </outline>
</glyph>
<glyph name="A" format="2">
  <advance width="1352"/>
  <unicode hex="0041"/>
  <note>
A
</note>
  <anchor x="651" y="0" name="bottom"/>
  <anchor x="1080" y="0" name="ogonek"/>
  <anchor x="675" y="1430" name="top"/>
  <outline>
    <contour>
      <point x="73" y="0" type="line"/>
      <point x="107" y="0" type="line"/>
      <point x="591" y="1196" type="line"/>
      <point x="563" y="1197" type="line"/>
      <point x="1041" y="0" type="line"/>
      <point x="1279" y="0" type="line"/>
      <point x="675" y="1486" type="line"/>
    </contour>
    <contour>
      <point x="285" y="466" type="line"/>
      <point x="865" y="466" type="line"/>
      <point x="851" y="502" type="line"/>
      <point x="300" y="502" type="line"/>
    </contour>
  </outline>
</glyph>
<glyph name="G" format="2">
  <advance width="1553"/>
  <unicode hex="0047"/>
  <note>
G
</note>
  <anchor x="782" y="0" name="bottom"/>
  <anchor x="790" y="1430" name="top"/>
  <outline>
    <contour>
      <point x="792" y="-26" type="curve" smooth="yes"/>
      <point x="1160" y="-26"/>
      <point x="1435" y="257"/>
      <point x="1474" y="630" type="curve"/>
      <point x="1262" y="630" type="line"/>
      <point x="1240" y="253"/>
      <point x="1057" y="4"/>
      <point x="789" y="4" type="curve" smooth="yes"/>
      <point x="504" y="4"/>
      <point x="314" y="287"/>
      <point x="314" y="714" type="curve" smooth="yes"/>
      <point x="314" y="1141"/>
      <point x="504" y="1430"/>
      <point x="790" y="1430" type="curve" smooth="yes"/>
      <point x="970" y="1430"/>
      <point x="1114" y="1314"/>
      <point x="1192" y="1118" type="curve"/>
      <point x="1370" y="1118" type="line"/>
      <point x="1253" y="1321"/>
      <point x="1017" y="1460"/>
      <point x="789" y="1460" type="curve" smooth="yes"/>
      <point x="407" y="1460"/>
      <point x="102" y="1118"/>
      <point x="102" y="718" type="curve" smooth="yes"/>
      <point x="102" y="302"/>
      <point x="387" y="-26"/>
    </contour>
    <contour>
      <point x="844" y="594" type="line"/>
      <point x="1308" y="594" type="line"/>
      <point x="1308" y="630" type="line"/>
      <point x="844" y="630" type="line"/>
    </contour>
  </outline>
</glyph>
<glyph name="K" format="2">
  <advance width="1416"/>
  <unicode hex="004B"/>
  <note>
K
</note>
  <anchor x="690" y="0" name="bottom"/>
  <anchor x="690" y="1430" name="top"/>
  <outline>
    <contour>
      <point x="175" y="0" type="line"/>
      <point x="381" y="0" type="line"/>
      <point x="381" y="1430" type="line"/>
      <point x="175" y="1430" type="line"/>
    </contour>
    <contour>
      <point x="322" y="481" type="line"/>
      <point x="1117" y="1430" type="line"/>
      <point x="1069" y="1430" type="line"/>
      <point x="321" y="539" type="line"/>
    </contour>
    <contour>
      <point x="1077" y="0" type="line"/>
      <point x="1349" y="0" type="line"/>
      <point x="625" y="863" type="line"/>
      <point x="489" y="703" type="line"/>
    </contour>
  </outline>
</glyph>
<glyph name="L" format="2">
  <advance width="1033"/>
  <unicode hex="004C"/>
  <note>
L
</note>
  <anchor x="559" y="0" name="bottom"/>
  <anchor x="289" y="716" name="center"/>
  <anchor x="733" y="734" name="dot"/>
  <anchor x="926" y="10" name="ogonek"/>
  <anchor x="379" y="1430" name="top"/>
  <anchor x="12" y="1430" name="topleft"/>
  <anchor x="827" y="1430" name="topright"/>
  <outline>
    <contour>
      <point x="175" y="0" type="line"/>
      <point x="965" y="0" type="line"/>
      <point x="965" y="36" type="line"/>
      <point x="288" y="36" type="line"/>
      <point x="381" y="13" type="line"/>
      <point x="381" y="1430" type="line"/>
      <point x="175" y="1430" type="line"/>
    </contour>
  </outline>
</glyph>
<glyph name="O" format="2">
  <advance width="1578"/>
  <unicode hex="004F"/>
  <note>
O
</note>
  <anchor x="789" y="0" name="bottom"/>
  <anchor x="789" y="715" name="center"/>
  <anchor x="932" y="0" name="ogonek"/>
  <anchor x="789" y="1430" name="top"/>
  <anchor x="51" y="1430" name="topleft"/>
  <anchor x="1527" y="1430" name="topright"/>
  <outline>
    <contour>
      <point x="790" y="-26" type="curve" smooth="yes"/>
      <point x="1185" y="-26"/>
      <point x="1476" y="296"/>
      <point x="1476" y="712" type="curve" smooth="yes"/>
      <point x="1476" y="1119"/>
      <point x="1180" y="1460"/>
      <point x="790" y="1460" type="curve" smooth="yes"/>
      <point x="406" y="1460"/>
      <point x="102" y="1123"/>
      <point x="102" y="712" type="curve" smooth="yes"/>
      <point x="102" y="302"/>
      <point x="393" y="-26"/>
    </contour>
    <contour>
      <point x="790" y="4" type="curve" smooth="yes"/>
      <point x="504" y="4"/>
      <point x="314" y="288"/>
      <point x="314" y="712" type="curve" smooth="yes"/>
      <point x="314" y="1142"/>
      <point x="504" y="1430"/>
      <point x="790" y="1430" type="curve" smooth="yes"/>
      <point x="1074" y="1430"/>
      <point x="1264" y="1142"/>
      <point x="1264" y="712" type="curve" smooth="yes"/>
      <point x="1264" y="288"/>
      <point x="1074" y="4"/>
    </contour>
  </outline>
</glyph>
<glyph name="U" format="2">
  <advance width="1464"/>
  <unicode hex="0055"/>
  <note>
U
</note>
  <anchor x="730" y="13" name="bottom"/>
  <anchor x="859" y="0" name="ogonek"/>
  <anchor x="730" y="1443" name="top"/>
  <anchor x="1690" y="1443" name="topright"/>
  <outline>
    <contour>
      <point x="732" y="-26" type="curve" smooth="yes"/>
      <point x="1054" y="-26"/>
      <point x="1318" y="236"/>
      <point x="1318" y="560" type="curve" smooth="yes"/>
      <point x="1318" y="1430" type="line"/>
      <point x="1282" y="1430" type="line"/>
      <point x="1282" y="552" type="line" smooth="yes"/>
      <point x="1282" y="212"/>
      <point x="984" y="10"/>
      <point x="734" y="10" type="curve" smooth="yes"/>
      <point x="542" y="10"/>
      <point x="352" y="130"/>
      <point x="352" y="552" type="curve" smooth="yes"/>
      <point x="352" y="1430" type="line"/>
      <point x="146" y="1430" type="line"/>
      <point x="146" y="560" type="line" smooth="yes"/>
      <point x="146" y="236"/>
      <point x="410" y="-26"/>
    </contour>
  </outline>
</glyph>
<glyph name="Z" format="2">
  <advance width="1227"/>
  <unicode hex="005A"/>
  <note>
Z
</note>
  <anchor x="606" y="0" name="bottom"/>
  <anchor x="606" y="715" name="center"/>
  <anchor x="606" y="1430" name="top"/>
  <outline>
    <contour>
      <point x="70" y="0" type="line"/>
      <point x="1150" y="0" type="line"/>
      <point x="1150" y="36" type="line"/>
      <point x="197" y="36" type="line"/>
      <point x="281" y="22" type="line"/>
      <point x="1122" y="1430" type="line"/>
      <point x="182" y="1430" type="line"/>
      <point x="182" y="1394" type="line"/>
      <point x="1003" y="1394" type="line"/>
      <point x="924" y="1416" type="line"/>
    </contour>
  </outline>
</glyph>
<glyph name="a" format="2">
  <advance width="1169"/>
  <unicode hex="0061"/>
  <note>
a
</note>
  <anchor x="527" y="0" name="bottom"/>
  <anchor x="965" y="0" name="ogonek"/>
  <anchor x="527" y="932" name="top"/>
  <outline>
    <contour>
      <point x="511" y="-30" type="curve" smooth="yes"/>
      <point x="713" y="-30"/>
      <point x="852" y="82"/>
      <point x="902" y="269" type="curve"/>
      <point x="853" y="303" type="line"/>
      <point x="848" y="0" type="line"/>
      <point x="1042" y="0" type="line"/>
      <point x="1042" y="914" type="line"/>
      <point x="846" y="914" type="line"/>
      <point x="846" y="606" type="line"/>
      <point x="900" y="640" type="line"/>
      <point x="851" y="832"/>
      <point x="710" y="942"/>
      <point x="508" y="942" type="curve" smooth="yes"/>
      <point x="241" y="942"/>
      <point x="72" y="740"/>
      <point x="72" y="447" type="curve" smooth="yes"/>
      <point x="72" y="159"/>
      <point x="242" y="-30"/>
    </contour>
    <contour>
      <point x="526" y="9" type="curve" smooth="yes"/>
      <point x="367" y="9"/>
      <point x="283" y="181"/>
      <point x="283" y="455" type="curve" smooth="yes"/>
      <point x="283" y="735"/>
      <point x="371" y="903"/>
      <point x="524" y="903" type="curve" smooth="yes"/>
      <point x="689" y="903"/>
      <point x="816" y="712"/>
      <point x="816" y="451" type="curve" smooth="yes"/>
      <point x="816" y="192"/>
      <point x="687" y="9"/>
    </contour>
  </outline>
</glyph>
<glyph name="r" format="2">
  <advance width="808"/>
  <unicode hex="0072"/>
  <note>
r
</note>
  <anchor x="197" y="0" name="bottom"/>
  <anchor x="571" y="914" name="top"/>
  <outline>
    <contour>
      <point x="129" y="0" type="line"/>
      <point x="331" y="0" type="line"/>
      <point x="331" y="582" type="line" smooth="yes"/>
      <point x="331" y="745"/>
      <point x="442" y="896"/>
      <point x="573" y="896" type="curve" smooth="yes"/>
      <point x="641" y="896"/>
      <point x="678" y="855"/>
      <point x="678" y="781" type="curve" smooth="yes"/>
      <point x="678" y="739"/>
      <point x="666" y="699"/>
      <point x="643" y="666" type="curve"/>
      <point x="746" y="643" type="line"/>
      <point x="754" y="688"/>
      <point x="758" y="724"/>
      <point x="758" y="752" type="curve" smooth="yes"/>
      <point x="758" y="868"/>
      <point x="689" y="940"/>
      <point x="579" y="940" type="curve" smooth="yes"/>
      <point x="434" y="940"/>
      <point x="315" y="813"/>
      <point x="284" y="624" type="curve"/>
      <point x="331" y="645" type="line"/>
      <point x="331" y="914" type="line"/>
      <point x="129" y="914" type="line"/>
    </contour>
  </outline>
</glyph>
<glyph name="s" format="2">
  <advance width="852"/>
  <unicode hex="0073"/>
  <note>
s
</note>
  <anchor x="399" y="-10" name="bottom"/>
  <anchor x="429" y="914" name="top"/>
  <outline>
    <contour>
      <point x="415" y="-27" type="curve" smooth="yes"/>
      <point x="710" y="-27"/>
      <point x="782" y="124"/>
      <point x="782" y="267" type="curve" smooth="yes"/>
      <point x="782" y="506"/>
      <point x="579" y="554"/>
      <point x="422" y="583" type="curve" smooth="yes"/>
      <point x="348" y="597"/>
      <point x="196" y="625"/>
      <point x="196" y="740" type="curve" smooth="yes"/>
      <point x="196" y="833"/>
      <point x="297" y="898"/>
      <point x="419" y="898" type="curve" smooth="yes"/>
      <point x="535" y="898"/>
      <point x="653" y="839"/>
      <point x="728" y="704" type="curve"/>
      <point x="728" y="841" type="line"/>
      <point x="602" y="922"/>
      <point x="500" y="939"/>
      <point x="420" y="939" type="curve" smooth="yes"/>
      <point x="210" y="939"/>
      <point x="92" y="821"/>
      <point x="92" y="669" type="curve" smooth="yes"/>
      <point x="92" y="471"/>
      <point x="325" y="418"/>
      <point x="398" y="402" type="curve" smooth="yes"/>
      <point x="529" y="373"/>
      <point x="642" y="335"/>
      <point x="642" y="199" type="curve" smooth="yes"/>
      <point x="642" y="44"/>
      <point x="487" y="16"/>
      <point x="404" y="16" type="curve" smooth="yes"/>
      <point x="265" y="16"/>
      <point x="170" y="94"/>
      <point x="76" y="253" type="curve"/>
      <point x="76" y="98" type="line"/>
      <point x="120" y="40"/>
      <point x="219" y="-27"/>
    </contour>
  </outline>
</glyph>
<glyph name="u" format="2">
  <advance width="1076"/>
  <unicode hex="0075"/>
  <note>
u
</note>
  <anchor x="508" y="0" name="bottom"/>
  <anchor x="815" y="0" name="ogonek"/>
  <anchor x="538" y="914" name="top"/>
  <anchor x="1221" y="824" name="topright"/>
  <outline>
    <contour>
      <point x="440" y="-26" type="curve" smooth="yes"/>
      <point x="601" y="-26"/>
      <point x="714" y="67"/>
      <point x="771" y="233" type="curve"/>
      <point x="747" y="267" type="line"/>
      <point x="745" y="0" type="line"/>
      <point x="947" y="0" type="line"/>
      <point x="947" y="914" type="line"/>
      <point x="745" y="914" type="line"/>
      <point x="745" y="452" type="line" smooth="yes"/>
      <point x="745" y="210"/>
      <point x="621" y="16"/>
      <point x="465" y="16" type="curve" smooth="yes"/>
      <point x="354" y="16"/>
      <point x="314" y="124"/>
      <point x="314" y="408" type="curve" smooth="yes"/>
      <point x="314" y="914" type="line"/>
      <point x="112" y="914" type="line"/>
      <point x="112" y="276" type="line" smooth="yes"/>
      <point x="112" y="97"/>
      <point x="248" y="-26"/>
    </contour>
  </outline>
</glyph>
<glyph name="currency" format="2">
  <advance width="1309"/>
  <unicode hex="00A4"/>
  <note>
currency
</note>
  <outline>
    <contour>
      <point x="220" y="175" type="line"/>
      <point x="410" y="369" type="line"/>
      <point x="479" y="316"/>
      <point x="565" y="285"/>
      <point x="658" y="285" type="curve" smooth="yes"/>
      <point x="750" y="285"/>
      <point x="835" y="315"/>
      <point x="903" y="366" type="curve"/>
      <point x="1092" y="175" type="line"/>
      <point x="1166" y="251" type="line"/>
      <point x="979" y="442" type="line"/>
      <point x="1035" y="511"/>
      <point x="1068" y="599"/>
      <point x="1068" y="695" type="curve" smooth="yes"/>
      <point x="1068" y="792"/>
      <point x="1034" y="881"/>
      <point x="978" y="950" type="curve"/>
      <point x="1166" y="1142" type="line"/>
      <point x="1090" y="1219" type="line"/>
      <point x="901" y="1026" type="line"/>
      <point x="833" y="1076"/>
      <point x="749" y="1106"/>
      <point x="658" y="1106" type="curve" smooth="yes"/>
      <point x="564" y="1106"/>
      <point x="478" y="1075"/>
      <point x="410" y="1022" type="curve"/>
      <point x="218" y="1219" type="line"/>
      <point x="141" y="1142" type="line"/>
      <point x="333" y="946" type="line"/>
      <point x="279" y="877"/>
      <point x="247" y="790"/>
      <point x="247" y="695" type="curve" smooth="yes"/>
      <point x="247" y="600"/>
      <point x="280" y="513"/>
      <point x="334" y="444" type="curve"/>
      <point x="144" y="251" type="line"/>
    </contour>
    <contour>
      <point x="658" y="381" type="curve" smooth="yes"/>
      <point x="484" y="381"/>
      <point x="343" y="521"/>
      <point x="343" y="695" type="curve" smooth="yes"/>
      <point x="343" y="869"/>
      <point x="484" y="1010"/>
      <point x="658" y="1010" type="curve" smooth="yes"/>
      <point x="832" y="1010"/>
      <point x="972" y="869"/>
      <point x="972" y="695" type="curve" smooth="yes"/>
      <point x="972" y="521"/>
      <point x="832" y="381"/>
    </contour>
  </outline>
</glyph>
<glyph name="section" format="2">
  <advance width="1156"/>
  <unicode hex="00A7"/>
  <note>
section
</note>
  <outline>
    <contour>
      <point x="550" y="-421" type="curve" smooth="yes"/>
      <point x="784" y="-421"/>
      <point x="962" y="-309"/>
      <point x="960" y="-125" type="curve" smooth="yes"/>
      <point x="958" y="55"/>
      <point x="797" y="130"/>
      <point x="569" y="201" type="curve"/>
      <point x="565" y="170" type="line"/>
      <point x="827" y="160"/>
      <point x="1029" y="281"/>
      <point x="1026" y="505" type="curve" smooth="yes"/>
      <point x="1024" y="684"/>
      <point x="906" y="774"/>
      <point x="676" y="860" type="curve" smooth="yes"/>
      <point x="505" y="924"/>
      <point x="391" y="994"/>
      <point x="389" y="1146" type="curve" smooth="yes"/>
      <point x="386" y="1302"/>
      <point x="466" y="1395"/>
      <point x="593" y="1395" type="curve" smooth="yes"/>
      <point x="720" y="1395"/>
      <point x="792" y="1304"/>
      <point x="787" y="1139" type="curve"/>
      <point x="965" y="1139" type="line"/>
      <point x="965" y="1165" type="line" smooth="yes"/>
      <point x="965" y="1341"/>
      <point x="833" y="1443"/>
      <point x="603" y="1443" type="curve" smooth="yes"/>
      <point x="366" y="1443"/>
      <point x="195" y="1335"/>
      <point x="197" y="1148" type="curve" smooth="yes"/>
      <point x="199" y="994"/>
      <point x="311" y="904"/>
      <point x="603" y="821" type="curve"/>
      <point x="590" y="850" type="line"/>
      <point x="337" y="875"/>
      <point x="130" y="748"/>
      <point x="133" y="517" type="curve" smooth="yes"/>
      <point x="135" y="360"/>
      <point x="233" y="249"/>
      <point x="525" y="154" type="curve" smooth="yes"/>
      <point x="664" y="109"/>
      <point x="768" y="9"/>
      <point x="769" y="-118" type="curve" smooth="yes"/>
      <point x="771" y="-260"/>
      <point x="687" y="-373"/>
      <point x="554" y="-373" type="curve" smooth="yes"/>
      <point x="430" y="-373"/>
      <point x="344" y="-276"/>
      <point x="349" y="-109" type="curve"/>
      <point x="171" y="-109" type="line"/>
      <point x="171" y="-135" type="line" smooth="yes"/>
      <point x="171" y="-302"/>
      <point x="317" y="-421"/>
    </contour>
    <contour>
      <point x="582" y="202" type="curve" smooth="yes"/>
      <point x="445" y="202"/>
      <point x="320" y="359"/>
      <point x="318" y="518" type="curve" smooth="yes"/>
      <point x="316" y="677"/>
      <point x="436" y="825"/>
      <point x="575" y="825" type="curve" smooth="yes"/>
      <point x="715" y="825"/>
      <point x="838" y="682"/>
      <point x="840" y="525" type="curve" smooth="yes"/>
      <point x="842" y="365"/>
      <point x="717" y="202"/>
    </contour>
  </outline>
</glyph>
<glyph name="copyright" format="2">
  <advance width="1772"/>
  <unicode hex="00A9"/>
  <note>
copyright
</note>
  <outline>
    <contour>
      <point x="885" y="-18" type="curve" smooth="yes"/>
      <point x="1087" y="-18"/>
      <point x="1285" y="68"/>
      <point x="1419" y="199" type="curve" smooth="yes"/>
      <point x="1565" y="341"/>
      <point x="1635" y="512"/>
      <point x="1635" y="708" type="curve" smooth="yes"/>
      <point x="1635" y="907"/>
      <point x="1562" y="1079"/>
      <point x="1420" y="1222" type="curve" smooth="yes"/>
      <point x="1288" y="1353"/>
      <point x="1092" y="1434"/>
      <point x="885" y="1434" type="curve" smooth="yes"/>
      <point x="690" y="1434"/>
      <point x="495" y="1361"/>
      <point x="360" y="1223" type="curve" smooth="yes"/>
      <point x="214" y="1074"/>
      <point x="136" y="903"/>
      <point x="136" y="708" type="curve" smooth="yes"/>
      <point x="136" y="513"/>
      <point x="211" y="342"/>
      <point x="358" y="197" type="curve" smooth="yes"/>
      <point x="496" y="59"/>
      <point x="688" y="-18"/>
    </contour>
    <contour>
      <point x="883" y="261" type="curve" smooth="yes"/>
      <point x="1091" y="261"/>
      <point x="1237" y="381"/>
      <point x="1257" y="543" type="curve"/>
      <point x="1106" y="543" type="line"/>
      <point x="1075" y="411"/>
      <point x="1001" y="340"/>
      <point x="890" y="340" type="curve" smooth="yes"/>
      <point x="747" y="340"/>
      <point x="640" y="478"/>
      <point x="640" y="706" type="curve" smooth="yes"/>
      <point x="640" y="936"/>
      <point x="743" y="1081"/>
      <point x="890" y="1081" type="curve" smooth="yes"/>
      <point x="995" y="1081"/>
      <point x="1064" y="1018"/>
      <point x="1096" y="897" type="curve"/>
      <point x="1247" y="897" type="line"/>
      <point x="1228" y="1045"/>
      <point x="1089" y="1158"/>
      <point x="893" y="1158" type="curve" smooth="yes"/>
      <point x="638" y="1158"/>
      <point x="474" y="981"/>
      <point x="474" y="704" type="curve" smooth="yes"/>
      <point x="474" y="434"/>
      <point x="630" y="261"/>
    </contour>
    <contour>
      <point x="885" y="70" type="curve" smooth="yes"/>
      <point x="721" y="70"/>
      <point x="576" y="134"/>
      <point x="453" y="259" type="curve" smooth="yes"/>
      <point x="342" y="370"/>
      <point x="271" y="537"/>
      <point x="271" y="708" type="curve" smooth="yes"/>
      <point x="271" y="878"/>
      <point x="339" y="1047"/>
      <point x="455" y="1164" type="curve" smooth="yes"/>
      <point x="576" y="1287"/>
      <point x="714" y="1349"/>
      <point x="885" y="1349" type="curve" smooth="yes"/>
      <point x="1053" y="1349"/>
      <point x="1197" y="1287"/>
      <point x="1323" y="1162" type="curve" smooth="yes"/>
      <point x="1434" y="1051"/>
      <point x="1502" y="878"/>
      <point x="1502" y="708" type="curve" smooth="yes"/>
      <point x="1502" y="530"/>
      <point x="1432" y="365"/>
      <point x="1325" y="261" type="curve" smooth="yes"/>
      <point x="1201" y="139"/>
      <point x="1051" y="70"/>
    </contour>
  </outline>
</glyph>
<glyph name="divide" format="2">
  <advance width="1050"/>
  <unicode hex="00F7"/>
  <note>
divide
</note>
  <outline>
    <contour>
      <point x="121" y="540" type="line"/>
      <point x="1291" y="540" type="line"/>
      <point x="1291" y="654" type="line"/>
      <point x="121" y="654" type="line"/>
    </contour>
    <contour>
      <point x="707" y="132" type="curve" smooth="yes"/>
      <point x="769" y="132"/>
      <point x="819" y="182"/>
      <point x="819" y="244" type="curve" smooth="yes"/>
      <point x="819" y="306"/>
      <point x="769" y="356"/>
      <point x="707" y="356" type="curve" smooth="yes"/>
      <point x="645" y="356"/>
      <point x="595" y="306"/>
      <point x="595" y="244" type="curve" smooth="yes"/>
      <point x="595" y="182"/>
      <point x="645" y="132"/>
    </contour>
    <contour>
      <point x="707" y="836" type="curve" smooth="yes"/>
      <point x="769" y="836"/>
      <point x="819" y="886"/>
      <point x="819" y="948" type="curve" smooth="yes"/>
      <point x="819" y="1010"/>
      <point x="769" y="1060"/>
      <point x="707" y="1060" type="curve" smooth="yes"/>
      <point x="645" y="1060"/>
      <point x="595" y="1010"/>
      <point x="595" y="948" type="curve" smooth="yes"/>
      <point x="595" y="886"/>
      <point x="643" y="836"/>
    </contour>
  </outline>
</glyph>
<glyph name="idotless" format="2">
  <advance width="460"/>
  <unicode hex="0131"/>
  <note>
dotlessi
</note>
  <anchor x="231" y="0" name="bottom"/>
  <anchor x="275" y="0" name="ogonek"/>
  <anchor x="231" y="914" name="top"/>
  <outline>
    <contour>
      <point x="129" y="0" type="line"/>
      <point x="331" y="0" type="line"/>
      <point x="331" y="914" type="line"/>
      <point x="129" y="914" type="line"/>
    </contour>
  </outline>
</glyph>
<glyph name="lslash" format="2">
  <advance width="718"/>
  <unicode hex="0142"/>
  <outline>
    <contour>
      <point x="261" y="0" type="line"/>
      <point x="463" y="0" type="line"/>
      <point x="463" y="1514" type="line"/>
      <point x="261" y="1514" type="line"/>
    </contour>
    <contour>
      <point x="51" y="504" type="line"/>
      <point x="685" y="886" type="line"/>
      <point x="667" y="916" type="line"/>
      <point x="33" y="534" type="line"/>
    </contour>
  </outline>
</glyph>
<glyph name="Eng" format="2">
  <advance width="1411"/>
  <unicode hex="014A"/>
  <outline>
    <contour>
      <point x="1006" y="-396" type="curve" smooth="yes"/>
      <point x="1184" y="-396"/>
      <point x="1228" y="-254"/>
      <point x="1228" y="-112" type="curve" smooth="yes"/>
      <point x="1228" y="1430" type="line"/>
      <point x="1196" y="1430" type="line"/>
      <point x="1196" y="179" type="line"/>
      <point x="1214" y="250" type="line"/>
      <point x="273" y="1430" type="line"/>
      <point x="174" y="1430" type="line"/>
      <point x="174" y="0" type="line"/>
      <point x="206" y="0" type="line"/>
      <point x="206" y="1255" type="line"/>
      <point x="199" y="1170" type="line"/>
      <point x="1059" y="92" type="line" smooth="yes"/>
      <point x="1128" y="5"/>
      <point x="1155" y="-12"/>
      <point x="1155" y="-146" type="curve" smooth="yes"/>
      <point x="1155" y="-308"/>
      <point x="1110" y="-366"/>
      <point x="1017" y="-366" type="curve" smooth="yes"/>
      <point x="924" y="-366"/>
      <point x="854" y="-308"/>
      <point x="791" y="-199" type="curve"/>
      <point x="791" y="-308" type="line"/>
      <point x="819" y="-351"/>
      <point x="906" y="-396"/>
    </contour>
  </outline>
</glyph>
<glyph name="florin" format="2">
  <advance width="1293"/>
  <unicode hex="0192"/>
  <note>
florin
</note>
  <outline>
    <contour>
      <point x="545" y="535" type="line"/>
      <point x="747" y="535" type="line"/>
      <point x="895" y="1152" type="line" smooth="yes"/>
      <point x="922" y="1263"/>
      <point x="853" y="1504"/>
      <point x="1033" y="1520" type="curve"/>
      <point x="1082" y="1519"/>
      <point x="1122" y="1499"/>
      <point x="1134" y="1453" type="curve"/>
      <point x="1175" y="1525" type="line"/>
      <point x="1139" y="1550"/>
      <point x="1123" y="1564"/>
      <point x="1041" y="1564" type="curve" smooth="yes"/>
      <point x="821" y="1564"/>
      <point x="747" y="1376"/>
      <point x="693" y="1152" type="curve" smooth="yes"/>
    </contour>
    <contour>
      <point x="252" y="-488" type="curve" smooth="yes"/>
      <point x="469" y="-488"/>
      <point x="546" y="-301"/>
      <point x="600" y="-76" type="curve" smooth="yes"/>
      <point x="755" y="568" type="line"/>
      <point x="553" y="568" type="line"/>
      <point x="398" y="-76" type="line" smooth="yes"/>
      <point x="371" y="-187"/>
      <point x="440" y="-428"/>
      <point x="260" y="-444" type="curve"/>
      <point x="211" y="-443"/>
      <point x="171" y="-423"/>
      <point x="159" y="-377" type="curve"/>
      <point x="118" y="-449" type="line"/>
      <point x="154" y="-474"/>
      <point x="170" y="-488"/>
    </contour>
    <contour>
      <point x="432" y="874" type="line"/>
      <point x="1034" y="874" type="line"/>
      <point x="1044" y="914" type="line"/>
      <point x="442" y="914" type="line"/>
    </contour>
  </outline>
</glyph>
<glyph name="acutecomb" format="2">
  <unicode hex="0301"/>
  <note>
acute
</note>
  <anchor x="162" y="914" name="_top"/>
  <anchor x="162" y="1326" name="top"/>
  <outline>
    <contour>
      <point x="8" y="1034" type="curve"/>
      <point x="67" y="1034" type="line"/>
      <point x="165" y="1128"/>
      <point x="264" y="1247"/>
      <point x="316" y="1326" type="curve"/>
      <point x="160" y="1326" type="line"/>
      <point x="121" y="1256"/>
      <point x="37" y="1100"/>
    </contour>
  </outline>
</glyph>
<glyph name="hookabovecomb" format="2">
  <unicode hex="0309"/>
  <anchor x="158" y="914" name="_top"/>
  <anchor x="158" y="1457" name="top"/>
  <outline>
    <contour>
      <point x="82" y="1117" type="line"/>
      <point x="210" y="1106"/>
      <point x="342" y="1205"/>
      <point x="342" y="1309" type="curve" smooth="yes"/>
      <point x="342" y="1397"/>
      <point x="245" y="1457"/>
      <point x="132" y="1457" type="curve" smooth="yes"/>
      <point x="59" y="1457"/>
      <point x="13" y="1432"/>
      <point x="-27" y="1403" type="curve"/>
      <point x="-3" y="1372" type="line"/>
      <point x="59" y="1415"/>
      <point x="126" y="1417"/>
      <point x="141" y="1417" type="curve" smooth="yes"/>
      <point x="224" y="1417"/>
      <point x="251" y="1369"/>
      <point x="251" y="1309" type="curve" smooth="yes"/>
      <point x="251" y="1225"/>
      <point x="199" y="1155"/>
      <point x="82" y="1145" type="curve"/>
    </contour>
    <contour>
      <point x="82" y="1038" type="line"/>
      <point x="174" y="1038" type="line"/>
      <point x="174" y="1145" type="line"/>
      <point x="82" y="1145" type="line"/>
    </contour>
  </outline>
</glyph>
<glyph name="strokeshortcomb" format="2">
  <unicode hex="0335"/>
  <anchor x="366" y="752" name="_center"/>
  <outline>
    <contour>
      <point x="54" y="732" type="line"/>
      <point x="676" y="732" type="line"/>
      <point x="676" y="770" type="line"/>
      <point x="54" y="770" type="line"/>
    </contour>
  </outline>
</glyph>
<glyph name="strokelongcomb" format="2">
  <unicode hex="0336"/>
  <anchor x="432" y="752" name="_center"/>
  <outline>
    <contour>
      <point x="54" y="732" type="line"/>
      <point x="807" y="732" type="line"/>
      <point x="807" y="770" type="line"/>
      <point x="54" y="770" type="line"/>
    </contour>
  </outline>
</glyph>
<glyph name="slashlongcomb" format="2">
  <unicode hex="0338"/>
  <anchor x="392" y="469" name="_center"/>
  <outline>
    <contour>
      <point x="12" y="-98" type="line"/>
      <point x="94" y="-98" type="line"/>
      <point x="771" y="1036" type="line"/>
      <point x="689" y="1036" type="line"/>
    </contour>
  </outline>
</glyph>
<glyph name="guilsinglleft" format="2">
  <advance width="481"/>
  <unicode hex="2039"/>
  <note>
guilsinglleft
</note>
  <outline>
    <contour>
      <point x="357" y="48" type="line"/>
      <point x="393" y="78" type="line"/>
      <point x="151" y="442" type="line"/>
      <point x="391" y="814" type="line"/>
      <point x="349" y="840" type="line"/>
      <point x="71" y="442" type="line"/>
    </contour>
  </outline>
</glyph>
<glyph name="lira" format="2">
  <advance width="1253"/>
  <unicode hex="20A4"/>
  <outline>
    <contour>
      <point x="165" y="-5" type="line"/>
      <point x="1089" y="-5" type="line"/>
      <point x="1089" y="62" type="line"/>
      <point x="165" y="62" type="line"/>
    </contour>
    <contour>
      <point x="165" y="772" type="line"/>
      <point x="1009" y="772" type="line"/>
      <point x="1009" y="808" type="line"/>
      <point x="165" y="808" type="line"/>
    </contour>
    <contour>
      <point x="165" y="61" type="curve"/>
      <point x="283" y="52" type="line"/>
      <point x="461" y="188"/>
      <point x="545" y="319"/>
      <point x="583" y="625" type="curve" smooth="yes"/>
      <point x="617" y="898"/>
      <point x="364" y="884"/>
      <point x="364" y="1170" type="curve" smooth="yes"/>
      <point x="364" y="1346"/>
      <point x="491" y="1433"/>
      <point x="640" y="1433" type="curve" smooth="yes"/>
      <point x="801" y="1433"/>
      <point x="908" y="1325"/>
      <point x="907" y="1123" type="curve"/>
      <point x="1113" y="1123" type="line"/>
      <point x="1101" y="1331"/>
      <point x="913" y="1469"/>
      <point x="647" y="1469" type="curve" smooth="yes"/>
      <point x="380" y="1469"/>
      <point x="202" y="1341"/>
      <point x="202" y="1152" type="curve" smooth="yes"/>
      <point x="202" y="906"/>
      <point x="435" y="877"/>
      <point x="396" y="611" type="curve" smooth="yes"/>
      <point x="350" y="298"/>
      <point x="257" y="136"/>
    </contour>
    <contour>
      <point x="165" y="562" type="line"/>
      <point x="1009" y="562" type="line"/>
      <point x="1009" y="598" type="line"/>
      <point x="165" y="598" type="line"/>
    </contour>
  </outline>
</glyph>
<glyph name="liraTurkish" format="2">
  <advance width="1182"/>
  <unicode hex="20BA"/>
  <outline>
    <contour>
      <point x="371" y="0" type="line"/>
      <point x="904" y="0"/>
      <point x="998" y="56"/>
      <point x="1052" y="403" type="curve"/>
      <point x="983" y="403" type="line"/>
      <point x="975" y="93"/>
      <point x="892" y="40"/>
      <point x="409" y="39" type="curve"/>
      <point x="541" y="9" type="line"/>
      <point x="541" y="1438" type="line"/>
      <point x="371" y="1438" type="line"/>
    </contour>
    <contour>
      <point x="146" y="504" type="line"/>
      <point x="780" y="886" type="line"/>
      <point x="762" y="916" type="line"/>
      <point x="128" y="534" type="line"/>
    </contour>
    <contour>
      <point x="146" y="644" type="line"/>
      <point x="780" y="1026" type="line"/>
      <point x="762" y="1056" type="line"/>
      <point x="128" y="674" type="line"/>
    </contour>
  </outline>
</glyph>
<glyph name="emptyset" format="2">
  <advance width="1200"/>
  <unicode hex="2205"/>
  <outline>
    <contour>
      <point x="550" y="-28" type="curve" smooth="yes"/>
      <point x="820" y="-28"/>
      <point x="1040" y="193"/>
      <point x="1040" y="464" type="curve" smooth="yes"/>
      <point x="1040" y="734"/>
      <point x="820" y="953"/>
      <point x="550" y="953" type="curve" smooth="yes"/>
      <point x="279" y="953"/>
      <point x="60" y="734"/>
      <point x="60" y="464" type="curve" smooth="yes"/>
      <point x="60" y="193"/>
      <point x="279" y="-28"/>
    </contour>
    <contour>
      <point x="550" y="79" type="curve" smooth="yes"/>
      <point x="337" y="79"/>
      <point x="165" y="251"/>
      <point x="165" y="464" type="curve" smooth="yes"/>
      <point x="165" y="676"/>
      <point x="337" y="848"/>
      <point x="550" y="848" type="curve" smooth="yes"/>
      <point x="762" y="848"/>
      <point x="934" y="676"/>
      <point x="934" y="464" type="curve" smooth="yes"/>
      <point x="934" y="251"/>
      <point x="762" y="79"/>
    </contour>
    <component base="slashlongcomb" xOffset="152" yOffset="-7"/>
  </outline>
</glyph>
<glyph name="infinity" format="2">
  <advance width="1582"/>
  <unicode hex="221E"/>
  <note>
infinity
</note>
  <outline>
    <contour>
      <point x="475" y="205" type="curve" smooth="yes"/>
      <point x="608" y="205"/>
      <point x="706" y="287"/>
      <point x="805" y="476" type="curve"/>
      <point x="908" y="283"/>
      <point x="1004" y="209"/>
      <point x="1130" y="209" type="curve" smooth="yes"/>
      <point x="1315" y="209"/>
      <point x="1433" y="383"/>
      <point x="1433" y="602" type="curve" smooth="yes"/>
      <point x="1433" y="843"/>
      <point x="1285" y="993"/>
      <point x="1107" y="993" type="curve" smooth="yes"/>
      <point x="970" y="993"/>
      <point x="870" y="905"/>
      <point x="777" y="716" type="curve"/>
      <point x="683" y="907"/>
      <point x="585" y="989"/>
      <point x="454" y="989" type="curve" smooth="yes"/>
      <point x="272" y="989"/>
      <point x="149" y="816"/>
      <point x="149" y="596" type="curve" smooth="yes"/>
      <point x="149" y="358"/>
      <point x="293" y="205"/>
    </contour>
    <contour>
      <point x="452" y="344" type="curve" smooth="yes"/>
      <point x="315" y="344"/>
      <point x="244" y="447"/>
      <point x="244" y="588" type="curve" smooth="yes"/>
      <point x="244" y="733"/>
      <point x="347" y="836"/>
      <point x="476" y="836" type="curve" smooth="yes"/>
      <point x="597" y="836"/>
      <point x="676" y="744"/>
      <point x="742" y="620" type="curve"/>
      <point x="640" y="390"/>
      <point x="543" y="344"/>
    </contour>
    <contour>
      <point x="1110" y="362" type="curve" smooth="yes"/>
      <point x="986" y="362"/>
      <point x="921" y="457"/>
      <point x="855" y="581" type="curve"/>
      <point x="953" y="803"/>
      <point x="1038" y="854"/>
      <point x="1132" y="854" type="curve" smooth="yes"/>
      <point x="1266" y="854"/>
      <point x="1340" y="742"/>
      <point x="1340" y="608" type="curve" smooth="yes"/>
      <point x="1340" y="456"/>
      <point x="1234" y="362"/>
    </contour>
  </outline>
</glyph>
<glyph name="integral" format="2">
  <advance width="1238"/>
  <unicode hex="222B"/>
  <note>
integral
</note>
  <outline>
    <contour>
      <point x="295" y="-550" type="curve" smooth="yes"/>
      <point x="482" y="-550"/>
      <point x="556" y="-421"/>
      <point x="606" y="-138" type="curve"/>
      <point x="834" y="1152" type="line"/>
      <point x="854" y="1266"/>
      <point x="894" y="1481"/>
      <point x="948" y="1520" type="curve"/>
      <point x="1005" y="1518"/>
      <point x="1053" y="1486"/>
      <point x="1053" y="1427" type="curve" smooth="yes"/>
      <point x="1053" y="1388"/>
      <point x="1032" y="1327"/>
      <point x="1016" y="1289" type="curve"/>
      <point x="1103" y="1289" type="line"/>
      <point x="1117" y="1333"/>
      <point x="1129" y="1375"/>
      <point x="1129" y="1415" type="curve" smooth="yes"/>
      <point x="1129" y="1500"/>
      <point x="1074" y="1564"/>
      <point x="943" y="1564" type="curve" smooth="yes"/>
      <point x="756" y="1564"/>
      <point x="681" y="1435"/>
      <point x="632" y="1152" type="curve"/>
      <point x="404" y="-138" type="line"/>
      <point x="384" y="-252"/>
      <point x="344" y="-467"/>
      <point x="290" y="-506" type="curve"/>
      <point x="232" y="-504"/>
      <point x="186" y="-476"/>
      <point x="186" y="-412" type="curve" smooth="yes"/>
      <point x="186" y="-371"/>
      <point x="205" y="-315"/>
      <point x="222" y="-275" type="curve"/>
      <point x="135" y="-275" type="line"/>
      <point x="121" y="-319"/>
      <point x="109" y="-361"/>
      <point x="109" y="-401" type="curve" smooth="yes"/>
      <point x="109" y="-486"/>
      <point x="164" y="-550"/>
    </contour>
  </outline>
</glyph>
<glyph name="leftanglebracket-math" format="2">
  <advance width="693"/>
  <unicode hex="27E8"/>
  <outline>
    <contour>
      <point x="570" y="186" type="line"/>
      <point x="616" y="237" type="line"/>
      <point x="198" y="685" type="line"/>
      <point x="615" y="1140" type="line"/>
      <point x="564" y="1184" type="line"/>
      <point x="61" y="685" type="line"/>
    </contour>
  </outline>
</glyph>
<glyph name="apple" format="2">
  <advance width="1606"/>
  <unicode hex="F000"/>
  <note>
apple
</note>
  <outline>
    <contour>
      <point x="593" y="-34" type="curve" smooth="yes"/>
      <point x="619" y="-34"/>
      <point x="661" y="-24"/>
      <point x="717" y="-2" type="curve" smooth="yes"/>
      <point x="773" y="20"/>
      <point x="815" y="30"/>
      <point x="845" y="30" type="curve" smooth="yes"/>
      <point x="871" y="30"/>
      <point x="911" y="20"/>
      <point x="965" y="-2" type="curve" smooth="yes"/>
      <point x="1019" y="-24"/>
      <point x="1061" y="-34"/>
      <point x="1093" y="-34" type="curve" smooth="yes"/>
      <point x="1167" y="-34"/>
      <point x="1233" y="-2"/>
      <point x="1293" y="60" type="curve" smooth="yes"/>
      <point x="1353" y="122"/>
      <point x="1419" y="232"/>
      <point x="1493" y="394" type="curve"/>
      <point x="1345" y="460"/>
      <point x="1265" y="576"/>
      <point x="1265" y="724" type="curve" smooth="yes"/>
      <point x="1265" y="856"/>
      <point x="1329" y="958"/>
      <point x="1461" y="1044" type="curve"/>
      <point x="1367" y="1154"/>
      <point x="1255" y="1204"/>
      <point x="1111" y="1204" type="curve" smooth="yes"/>
      <point x="1069" y="1204"/>
      <point x="1019" y="1192"/>
      <point x="963" y="1170" type="curve" smooth="yes"/>
      <point x="905" y="1148"/>
      <point x="865" y="1136"/>
      <point x="843" y="1136" type="curve" smooth="yes"/>
      <point x="819" y="1136"/>
      <point x="779" y="1146"/>
      <point x="723" y="1168" type="curve" smooth="yes"/>
      <point x="658" y="1194"/>
      <point x="614" y="1202"/>
      <point x="571" y="1202" type="curve" smooth="yes"/>
      <point x="313" y="1202"/>
      <point x="133" y="1004"/>
      <point x="133" y="720" type="curve" smooth="yes"/>
      <point x="133" y="533"/>
      <point x="209" y="318"/>
      <point x="341" y="139" type="curve" smooth="yes"/>
      <point x="428" y="21"/>
      <point x="513" y="-34"/>
    </contour>
    <contour>
      <point x="849" y="1187" type="curve" smooth="yes"/>
      <point x="855" y="1187" type="line"/>
      <point x="863" y="1186" type="line" smooth="yes"/>
      <point x="993" y="1186"/>
      <point x="1163" y="1344"/>
      <point x="1163" y="1516" type="curve" smooth="yes"/>
      <point x="1163" y="1550"/>
      <point x="1161" y="1564"/>
      <point x="1161" y="1576" type="curve"/>
      <point x="977" y="1542"/>
      <point x="837" y="1384"/>
      <point x="837" y="1224" type="curve" smooth="yes"/>
      <point x="837" y="1204"/>
      <point x="839" y="1196"/>
      <point x="839" y="1188" type="curve"/>
      <point x="843" y="1188"/>
      <point x="845" y="1187"/>
    </contour>
  </outline>
</glyph>
<glyph name="fl" format="2">
  <advance width="928"/>
  <unicode hex="F002"/>
  <note>
fl
</note>
  <anchor x="473" y="0" name="caret_1"/>
  <outline>
    <contour>
      <point x="209" y="0" type="line"/>
      <point x="411" y="0" type="line"/>
      <point x="411" y="1152" type="line" smooth="yes"/>
      <point x="411" y="1266"/>
      <point x="413" y="1481"/>
      <point x="461" y="1520" type="curve"/>
      <point x="526" y="1518"/>
      <point x="584" y="1484"/>
      <point x="584" y="1399" type="curve"/>
      <point x="656" y="1289" type="line"/>
      <point x="661" y="1324"/>
      <point x="664" y="1354"/>
      <point x="664" y="1376" type="curve" smooth="yes"/>
      <point x="664" y="1481"/>
      <point x="598" y="1564"/>
      <point x="448" y="1564" type="curve" smooth="yes"/>
      <point x="261" y="1564"/>
      <point x="209" y="1435"/>
      <point x="209" y="1152" type="curve" smooth="yes"/>
    </contour>
    <contour>
      <point x="35" y="874" type="line"/>
      <point x="597" y="874" type="line"/>
      <point x="597" y="914" type="line"/>
      <point x="35" y="914" type="line"/>
    </contour>
    <contour>
      <point x="584" y="0" type="line"/>
      <point x="786" y="0" type="line"/>
      <point x="786" y="1514" type="line"/>
      <point x="584" y="1514" type="line"/>
    </contour>
  </outline>
</glyph>
<glyph name="currency_horz_stroke_long.case" format="2">
  <advance width="1784"/>
  <anchor x="892" y="0" name="_bottom"/>
  <anchor x="890" y="-318" name="bottom"/>
  <outline>
    <contour>
      <point x="155" y="697" type="line"/>
      <point x="1629" y="697" type="line"/>
      <point x="1629" y="743" type="line"/>
      <point x="155" y="743" type="line"/>
    </contour>
  </outline>
</glyph>
<glyph name="f_j" format="2">
  <advance width="954"/>
  <anchor x="239" y="0" name="bottom_1"/>
  <anchor x="716" y="0" name="bottom_2"/>
  <anchor x="477" y="0" name="caret_1"/>
  <anchor x="239" y="1514" name="top_1"/>
  <anchor x="716" y="1514" name="top_2"/>
  <outline>
    <contour>
      <point x="207" y="0" type="line"/>
      <point x="413" y="0" type="line"/>
      <point x="413" y="967" type="line"/>
      <point x="320" y="874" type="line"/>
      <point x="647" y="874" type="line"/>
      <point x="647" y="914" type="line"/>
      <point x="320" y="914" type="line"/>
      <point x="413" y="821" type="line"/>
      <point x="413" y="1226" type="line" smooth="yes"/>
      <point x="413" y="1424"/>
      <point x="434" y="1521"/>
      <point x="487" y="1521" type="curve" smooth="yes"/>
      <point x="510" y="1521"/>
      <point x="629" y="1502"/>
      <point x="629" y="1402" type="curve" smooth="yes"/>
      <point x="629" y="1373"/>
      <point x="619" y="1305"/>
      <point x="609" y="1266" type="curve"/>
      <point x="786" y="1266" type="line"/>
      <point x="800" y="1291"/>
      <point x="813" y="1359"/>
      <point x="813" y="1392" type="curve" smooth="yes"/>
      <point x="813" y="1495"/>
      <point x="681" y="1564"/>
      <point x="495" y="1564" type="curve" smooth="yes"/>
      <point x="257" y="1564"/>
      <point x="207" y="1450"/>
      <point x="207" y="1152" type="curve" smooth="yes"/>
      <point x="207" y="821" type="line"/>
      <point x="300" y="914" type="line"/>
      <point x="35" y="914" type="line"/>
      <point x="35" y="874" type="line"/>
      <point x="300" y="874" type="line"/>
      <point x="207" y="967" type="line"/>
    </contour>
    <contour>
      <point x="556" y="-550" type="curve" smooth="yes"/>
      <point x="743" y="-550"/>
      <point x="793" y="-421"/>
      <point x="793" y="-138" type="curve" smooth="yes"/>
      <point x="793" y="914" type="line"/>
      <point x="591" y="914" type="line"/>
      <point x="591" y="-138" type="line" smooth="yes"/>
      <point x="591" y="-252"/>
      <point x="591" y="-467"/>
      <point x="543" y="-506" type="curve"/>
      <point x="478" y="-504"/>
      <point x="420" y="-470"/>
      <point x="420" y="-385" type="curve" smooth="yes"/>
      <point x="420" y="-355"/>
      <point x="427" y="-306"/>
      <point x="435" y="-275" type="curve"/>
      <point x="348" y="-275" type="line"/>
      <point x="343" y="-310"/>
      <point x="340" y="-339"/>
      <point x="340" y="-362" type="curve" smooth="yes"/>
      <point x="340" y="-466"/>
      <point x="406" y="-550"/>
    </contour>
  </outline>
</glyph>
<glyph name="m.rvrn" format="2">
  <advance width="1698"/>
  <note>
m
</note>
  <anchor x="849" y="0" name="bottom"/>
  <anchor x="849" y="914" name="top"/>
  <outline>
    <contour>
      <point x="129" y="0" type="line"/>
      <point x="331" y="0" type="line"/>
      <point x="331" y="462" type="line" smooth="yes"/>
      <point x="331" y="646"/>
      <point x="409" y="898"/>
      <point x="583" y="898" type="curve" smooth="yes"/>
      <point x="735" y="898"/>
      <point x="779" y="708"/>
      <point x="779" y="526" type="curve" smooth="yes"/>
      <point x="779" y="0" type="line"/>
      <point x="981" y="0" type="line"/>
      <point x="981" y="684" type="line"/>
      <point x="964" y="684" type="line"/>
      <point x="924" y="835"/>
      <point x="810" y="940"/>
      <point x="643" y="940" type="curve" smooth="yes"/>
      <point x="485" y="940"/>
      <point x="375" y="845"/>
      <point x="299" y="697" type="curve"/>
      <point x="333" y="663" type="line"/>
      <point x="333" y="914" type="line"/>
      <point x="129" y="914" type="line"/>
    </contour>
    <contour>
      <point x="1385" y="0" type="line"/>
      <point x="1587" y="0" type="line"/>
      <point x="1587" y="608" type="line" smooth="yes"/>
      <point x="1587" y="808"/>
      <point x="1461" y="940"/>
      <point x="1262" y="940" type="curve" smooth="yes"/>
      <point x="1084" y="940"/>
      <point x="986" y="834"/>
      <point x="898" y="666" type="curve"/>
      <point x="981" y="462" type="line"/>
      <point x="981" y="658"/>
      <point x="1033" y="884"/>
      <point x="1205" y="884" type="curve" smooth="yes"/>
      <point x="1357" y="884"/>
      <point x="1385" y="708"/>
      <point x="1385" y="526" type="curve" smooth="yes"/>
    </contour>
  </outline>
</glyph>
<glyph name="nine.dnom" format="2">
  <advance width="797"/>
  <note>
nine
</note>
  <outline>
    <contour>
      <point x="139" y="-41" type="line"/>
      <point x="269" y="-37"/>
      <point x="430" y="33"/>
      <point x="533" y="123" type="curve" smooth="yes"/>
      <point x="572" y="157"/>
      <point x="616" y="199"/>
      <point x="653" y="266" type="curve" smooth="yes"/>
      <point x="710" y="369"/>
      <point x="737" y="501"/>
      <point x="737" y="614" type="curve" smooth="yes"/>
      <point x="737" y="842"/>
      <point x="622" y="971"/>
      <point x="411" y="971" type="curve" smooth="yes"/>
      <point x="198" y="971"/>
      <point x="56" y="841"/>
      <point x="56" y="660" type="curve" smooth="yes"/>
      <point x="56" y="480"/>
      <point x="196" y="347"/>
      <point x="389" y="347" type="curve" smooth="yes"/>
      <point x="506" y="347"/>
      <point x="596" y="396"/>
      <point x="633" y="476" type="curve"/>
      <point x="591" y="628" type="line"/>
      <point x="522" y="360"/>
      <point x="496" y="276"/>
      <point x="435" y="199" type="curve" smooth="yes"/>
      <point x="363" y="108"/>
      <point x="241" y="36"/>
      <point x="139" y="19" type="curve"/>
    </contour>
    <contour>
      <point x="389" y="387" type="curve" smooth="yes"/>
      <point x="317" y="387"/>
      <point x="266" y="526"/>
      <point x="266" y="663" type="curve" smooth="yes"/>
      <point x="266" y="801"/>
      <point x="324" y="930"/>
      <point x="396" y="930" type="curve" smooth="yes"/>
      <point x="468" y="930"/>
      <point x="527" y="806"/>
      <point x="527" y="663" type="curve" smooth="yes"/>
      <point x="527" y="516"/>
      <point x="459" y="387"/>
    </contour>
  </outline>
</glyph>
<glyph name="seven.osf" format="2">
  <advance width="959"/>
  <outline>
    <contour>
      <point x="201" y="-373" type="curve"/>
      <point x="319" y="-417" type="line"/>
      <point x="381" y="116"/>
      <point x="578" y="399"/>
      <point x="926" y="955" type="curve"/>
      <point x="50" y="955" type="line"/>
      <point x="50" y="769" type="line"/>
      <point x="791" y="769" type="line"/>
      <point x="813" y="862" type="line"/>
      <point x="477" y="378"/>
      <point x="305" y="132"/>
    </contour>
  </outline>
</glyph>
<glyph name="slashlongcomb.case" format="2">
  <anchor x="732" y="721.5" name="_center"/>
  <outline>
    <contour>
      <point x="245" y="-38" type="line"/>
      <point x="305" y="-38" type="line"/>
      <point x="1219" y="1481" type="line"/>
      <point x="1159" y="1481" type="line"/>
    </contour>
  </outline>
</glyph>
<glyph name="three.osf" format="2">
  <advance width="1011"/>
  <outline>
    <contour>
      <point x="430" y="-341" type="curve" smooth="yes"/>
      <point x="697" y="-341"/>
      <point x="917" y="-189"/>
      <point x="917" y="121" type="curve" smooth="yes"/>
      <point x="917" y="306"/>
      <point x="793" y="467"/>
      <point x="604" y="467" type="curve"/>
      <point x="539" y="432" type="line"/>
      <point x="732" y="481"/>
      <point x="839" y="557"/>
      <point x="839" y="706" type="curve" smooth="yes"/>
      <point x="839" y="886"/>
      <point x="677" y="1006"/>
      <point x="469" y="1006" type="curve" smooth="yes"/>
      <point x="246" y="1006"/>
      <point x="78" y="869"/>
      <point x="69" y="688" type="curve"/>
      <point x="230" y="688" type="line"/>
      <point x="237" y="816"/>
      <point x="329" y="966"/>
      <point x="466" y="966" type="curve" smooth="yes"/>
      <point x="603" y="966"/>
      <point x="669" y="817"/>
      <point x="669" y="682" type="curve" smooth="yes"/>
      <point x="669" y="535"/>
      <point x="583" y="479"/>
      <point x="426" y="437" type="curve" smooth="yes"/>
      <point x="275" y="397" type="line"/>
      <point x="284" y="363" type="line"/>
      <point x="434" y="405"/>
      <point x="457" y="413"/>
      <point x="516" y="413" type="curve" smooth="yes"/>
      <point x="634" y="413"/>
      <point x="709" y="265"/>
      <point x="709" y="126" type="curve" smooth="yes"/>
      <point x="709" y="-76"/>
      <point x="655" y="-290"/>
      <point x="443" y="-290" type="curve" smooth="yes"/>
      <point x="360" y="-290"/>
      <point x="231" y="-275"/>
      <point x="89" y="-176" type="curve"/>
      <point x="67" y="-226" type="line"/>
      <point x="138" y="-276"/>
      <point x="270" y="-341"/>
    </contour>
  </outline>
</glyph>
